<svg width="315" height="296" viewBox="0 0 315 296" fill="none" xmlns="http://www.w3.org/2000/svg">
<path d="M293.907 150.779C300.631 139.594 305.465 127.849 308.499 115.879C318.625 142.509 316.881 173.204 300.973 199.582C273.021 245.946 212.026 261.336 164.706 233.948C152.833 227.08 142.934 218.166 135.238 207.907C194.059 227.893 261.034 205.3 293.907 150.779Z" fill="#025013" fill-opacity="0.7"/>
<path d="M228.163 33.6353C221.639 22.3385 213.657 12.3873 204.616 3.80969C233.197 8.51897 259.461 25.3659 274.823 52.0238C301.831 98.9205 284.923 158.375 237.06 184.837C225.044 191.48 212.226 195.405 199.324 196.835C246.415 156.918 259.919 88.8012 228.163 33.6353Z" fill="#025013" fill-opacity="0.7"/>
<path d="M91.7518 30.8884C78.5056 30.7483 65.717 32.5423 53.6152 35.9621C72.0683 14.0415 100.077 0.165881 131.347 0.474228C186.306 1.00683 230.395 45.0724 229.851 98.9207C229.707 112.432 226.761 125.298 221.582 136.931C209.852 77.0282 156.409 31.5051 91.7518 30.8884Z" fill="#025013" fill-opacity="0.7"/>
<path d="M21.115 145.229C14.3918 156.413 9.55676 168.158 6.52414 180.128C-3.60364 153.498 -1.85845 122.804 14.0485 96.4259C41.9715 50.0899 102.967 34.7005 150.287 62.0873C162.16 68.955 172.059 77.8691 179.755 88.1286C120.962 68.1141 53.9875 90.7075 21.115 145.229Z" fill="#025013" fill-opacity="0.7"/>
<path d="M86.8594 262.373C93.3538 273.669 101.336 283.622 110.405 292.198C81.8242 287.488 55.5604 270.641 40.1971 243.984C13.1898 197.088 30.098 137.633 77.9618 111.171C89.9777 104.527 102.795 100.603 115.698 99.1735C68.6066 139.09 55.1029 207.207 86.8594 262.373Z" fill="#025013" fill-opacity="0.7"/>
<path d="M223.27 265.119C236.516 265.26 249.305 263.465 261.407 260.045C242.952 281.966 214.916 295.814 183.674 295.505C128.715 294.973 84.6279 250.907 85.1715 197.059C85.3146 183.548 88.2613 170.681 93.4397 159.048C105.17 218.98 158.641 264.502 223.27 265.119Z" fill="#025013" fill-opacity="0.7"/>
</svg>
