<svg width="21" height="20" viewBox="0 0 21 20" fill="none" xmlns="http://www.w3.org/2000/svg">
<path fill-rule="evenodd" clip-rule="evenodd" d="M14.6357 14.9974C13.3152 16.1216 11.6035 16.8 9.73335 16.8C5.5544 16.8 2.16669 13.4123 2.16669 9.23335C2.16669 5.0544 5.5544 1.66669 9.73335 1.66669C13.9123 1.66669 17.3 5.0544 17.3 9.23335C17.3 11.0922 16.6298 12.7945 15.5177 14.1117L19.1497 17.7437L18.2658 18.6276L14.6357 14.9974ZM16.05 9.23335C16.05 12.722 13.222 15.55 9.73335 15.55C6.24475 15.55 3.41669 12.722 3.41669 9.23335C3.41669 5.74475 6.24475 2.91669 9.73335 2.91669C13.222 2.91669 16.05 5.74475 16.05 9.23335Z" fill="#025013" fill-opacity="0.7"/>
</svg>
